<svg id="visual" viewBox="0 0 900 600" width="900" height="600" xmlns="http://www.w3.org/2000/svg" xmlns:xlink="http://www.w3.org/1999/xlink" version="1.1"><path d="M0 37L21.5 37C43 37 86 37 128.8 47C171.7 57 214.3 77 257.2 85C300 93 343 89 385.8 82C428.7 75 471.3 65 514.2 59C557 53 600 51 642.8 48C685.7 45 728.3 41 771.2 45C814 49 857 61 878.5 67L900 73L900 0L878.5 0C857 0 814 0 771.2 0C728.3 0 685.7 0 642.8 0C600 0 557 0 514.2 0C471.3 0 428.7 0 385.8 0C343 0 300 0 257.2 0C214.3 0 171.7 0 128.8 0C86 0 43 0 21.5 0L0 0Z" fill="#346868"></path><path d="M0 103L21.5 106C43 109 86 115 128.8 119C171.7 123 214.3 125 257.2 125C300 125 343 123 385.8 118C428.7 113 471.3 105 514.2 101C557 97 600 97 642.8 94C685.7 91 728.3 85 771.2 87C814 89 857 99 878.5 104L900 109L900 71L878.5 65C857 59 814 47 771.2 43C728.3 39 685.7 43 642.8 46C600 49 557 51 514.2 57C471.3 63 428.7 73 385.8 80C343 87 300 91 257.2 83C214.3 75 171.7 55 128.8 45C86 35 43 35 21.5 35L0 35Z" fill="#2c5b5b"></path><path d="M0 145L21.5 144C43 143 86 141 128.8 144C171.7 147 214.3 155 257.2 162C300 169 343 175 385.8 168C428.7 161 471.3 141 514.2 134C557 127 600 133 642.8 131C685.7 129 728.3 119 771.2 119C814 119 857 129 878.5 134L900 139L900 107L878.5 102C857 97 814 87 771.2 85C728.3 83 685.7 89 642.8 92C600 95 557 95 514.2 99C471.3 103 428.7 111 385.8 116C343 121 300 123 257.2 123C214.3 123 171.7 121 128.8 117C86 113 43 107 21.5 104L0 101Z" fill="#244f4f"></path><path d="M0 265L21.5 275C43 285 86 305 128.8 299C171.7 293 214.3 261 257.2 268C300 275 343 321 385.8 328C428.7 335 471.3 303 514.2 290C557 277 600 283 642.8 273C685.7 263 728.3 237 771.2 240C814 243 857 275 878.5 291L900 307L900 137L878.5 132C857 127 814 117 771.2 117C728.3 117 685.7 127 642.8 129C600 131 557 125 514.2 132C471.3 139 428.7 159 385.8 166C343 173 300 167 257.2 160C214.3 153 171.7 145 128.8 142C86 139 43 141 21.5 142L0 143Z" fill="#1c4343"></path><path d="M0 289L21.5 301C43 313 86 337 128.8 332C171.7 327 214.3 293 257.2 302C300 311 343 363 385.8 374C428.7 385 471.3 355 514.2 343C557 331 600 337 642.8 326C685.7 315 728.3 287 771.2 285C814 283 857 307 878.5 319L900 331L900 305L878.5 289C857 273 814 241 771.2 238C728.3 235 685.7 261 642.8 271C600 281 557 275 514.2 288C471.3 301 428.7 333 385.8 326C343 319 300 273 257.2 266C214.3 259 171.7 291 128.8 297C86 303 43 283 21.5 273L0 263Z" fill="#183b3b"></path><path d="M0 487L21.5 481C43 475 86 463 128.8 453C171.7 443 214.3 435 257.2 441C300 447 343 467 385.8 468C428.7 469 471.3 451 514.2 442C557 433 600 433 642.8 435C685.7 437 728.3 441 771.2 449C814 457 857 469 878.5 475L900 481L900 329L878.5 317C857 305 814 281 771.2 283C728.3 285 685.7 313 642.8 324C600 335 557 329 514.2 341C471.3 353 428.7 383 385.8 372C343 361 300 309 257.2 300C214.3 291 171.7 325 128.8 330C86 335 43 311 21.5 299L0 287Z" fill="#173636"></path><path d="M0 553L21.5 555C43 557 86 561 128.8 560C171.7 559 214.3 553 257.2 552C300 551 343 555 385.8 556C428.7 557 471.3 555 514.2 556C557 557 600 561 642.8 565C685.7 569 728.3 573 771.2 571C814 569 857 561 878.5 557L900 553L900 479L878.5 473C857 467 814 455 771.2 447C728.3 439 685.7 435 642.8 433C600 431 557 431 514.2 440C471.3 449 428.7 467 385.8 466C343 465 300 445 257.2 439C214.3 433 171.7 441 128.8 451C86 461 43 473 21.5 479L0 485Z" fill="#163131"></path><path d="M0 601L21.5 601C43 601 86 601 128.8 601C171.7 601 214.3 601 257.2 601C300 601 343 601 385.8 601C428.7 601 471.3 601 514.2 601C557 601 600 601 642.8 601C685.7 601 728.3 601 771.2 601C814 601 857 601 878.5 601L900 601L900 551L878.5 555C857 559 814 567 771.2 569C728.3 571 685.7 567 642.8 563C600 559 557 555 514.2 554C471.3 553 428.7 555 385.8 554C343 553 300 549 257.2 550C214.3 551 171.7 557 128.8 558C86 559 43 555 21.5 553L0 551Z" fill="#152d2d"></path></svg>